#!OML:ASF F:\VICON\USERDATA\INSTALL\rory3\rory3.ASF
:FULLY-SPECIFIED
:DEGREES
19
root -0.048395711488536886 17.898983427615082 -10.20612458730042 -5.760002982122881 2.8190988406621367 -3.9251067375005224
lfemur -14.224440756299735 -4.2936191195283095 -20.595740541279856
ltibia 23.255337398862146
lfoot -12.566537883575503 -5.2963234010982125
ltoes 2.811901497802911
rfemur -4.734464068104269 2.6546577425330486 23.140354019832976
rtibia 56.34635398812699
rfoot 2.105827064540076 -11.855098251309743
rtoes 9.36379423573935
lowerback 10.291918744620945 0.9161833880404922 2.757621653384833
upperback 0.8344061892093695 1.6335500895954174 1.143270186062456
thorax -4.679967082147117 0.7388934881141116 -0.42773028030186067
lowerneck -16.112108456493043 -3.4336570958766406 -1.5742464100789346
upperneck 21.917757762855263 -4.597797166466042 2.0450544345862496
head 9.813000539821054 -2.107871953037104 0.19602371908928204
lclavicle -2.7971981182627257e-15 -4.160076107114572e-16
lhumerus -34.34455049688695 2.055176629398976 84.6234881323825
lradius 23.2435422040815
lwrist 4.405108285264934
lhand -28.003456396289263 22.181212150481564
lfingers 7.1250199999999975
lthumb -1.3892619925675547 52.15954348984622
rclavicle -2.7971981182627257e-15 -4.160076107114572e-16
rhumerus -27.355941252170513 -11.918767182730209 -82.81835422781626
rradius 22.217539375566
rwrist 9.54322827711541
rhand -19.390157587419782 23.808361781646173
rfingers 7.1250199999999975
rthumb 6.928610171710362 -6.153556490178202
20
root -0.053486680836620004 17.838487252301736 -9.331056217137368 -5.562796645678391 2.617321875400747 -2.003894284267069
lfemur -13.28641284758956 -4.472171544340428 -22.38720308773084
ltibia 26.216722457983995
lfoot -15.754674841558419 -1.6935251417071109
ltoes 5.383939363147615
rfemur -8.347449437376092 1.6442194408674045 19.45957479257034
rtibia 60.16991025177041
rfoot 2.0560470670028774 -9.304046643745735
rtoes 8.630345242188096
lowerback 10.44233029384724 0.8744060829326007 0.6790584860451412
upperback 0.9287596413050238 1.2043921502309476 0.8900240520909777
thorax -4.676651266221561 0.5907044560068656 0.18521279926853407
lowerneck -16.42676767129766 -3.407979915986207 -1.147002069608619
upperneck 21.83202659043795 -4.578507043733999 1.9755009073917038
head 9.86628498126347 -2.095244375914516 0.11925991427483064
lclavicle -2.7971981937090553e-15 -4.160075995117041e-16
lhumerus -32.57166633756072 0.6256461326527207 84.64494235360307
lradius 23.472899456551783
lwrist 5.806443274369968
lhand -27.028677433062047 21.325912611866393
lfingers 7.1250199999999975
lthumb -0.44770028244573457 51.29581485115899
rclavicle -2.7971981937090553e-15 -4.160075995117041e-16
rhumerus -27.629026699384024 -13.034979644130651 -82.90304944591216
rradius 20.53848867644143
rwrist 11.537784327685113
rhand -20.901144323620837 18.8647705482267
rfingers 7.1250199999999975
rthumb 5.469672390632375 -11.275120574400212
21
root 0.05962241050503725 17.76113785010488 -2.0839676529970745 -4.33405209848899 1.2821459877008872 0.9959133225557166
lfemur -12.531729499198391 -1.9020986576422854 -24.669052147034456
ltibia 31.523231636335296
lfoot -16.598647277944362 5.57370994262652
ltoes 4.433192431284622
rfemur -11.91748063694516 1.760742919788921 17.772933575552635
rtibia 65.56256036562192
rfoot -3.274200388369497 -8.524066636645452
rtoes 11.972006763845654
lowerback 10.6868806985008 1.485466255058347 -2.0180249962776093
upperback 0.8265020197954954 1.4827938997714578 0.2651163545932518
thorax -5.1879289910665545 0.8266964795771254 0.8720994169040742
lowerneck -16.817883383937062 -3.3499821343009852 -1.3643075683930341
upperneck 21.07341061157455 -4.4631912667617595 1.9283658980379568
head 9.5686754551536 -2.0572431526820125 0.34167034202582536
lclavicle -2.8234038360164427e-15 -4.334678055887707e-16
lhumerus -30.413312139766187 -2.8238121049457288 85.00411473045362
lradius 24.26454302363776
lwrist 3.6416148681777276
lhand -27.411338477643618 26.89454700904443
lfingers 7.1250199999999975
lthumb -0.8173463598640623 56.86935932730257
rclavicle -2.8234038360164427e-15 -4.334678055887707e-16
rhumerus -27.168429895833178 -18.482791147166445 -81.85798787045454
rradius 20.237435586922405
rwrist 10.064342869942175
rhand -18.711151121608143 20.632384542495565
rfingers 7.1250199999999975
rthumb 7.583732129644824 -9.828824803416955
22
root 0.08194056103382102 17.713214876436982 -5.207654666248407 -3.8107207053988574 0.936243764996171 2.0152919938752354
lfemur -11.315713090433825 -2.0167606572673535 -25.494692341862386
ltibia 31.546422280883338
lfoot -19.246721503852225 8.951655178828453
ltoes 3.192190091499674
rfemur -16.96529808745796 1.0545502728078695 15.918039200595096
rtibia 67.23796532015545
rfoot -5.726478784528685 -8.199234870338579
rtoes 10.668677602781997
lowerback 10.825769869206926 1.3823109460816616 -3.4241272509062
upperback 0.8499510502964314 1.1150965724181368 0.09330036959776367
thorax -5.308429682491244 0.691586577403741 1.2388426035028592
lowerneck -17.185361399281224 -3.301858928028905 -1.3951433061786702
upperneck 20.611298742129875 -4.389452600590667 2.066108696475956
head 9.443558951835755 -2.0237017844252976 0.4120413002393981
lclavicle -3.4651943476970297e-15 -8.615539768362643e-16
lhumerus -28.53823454832142 -5.060605112094855 85.08442666688669
lradius 24.24281657976485
lwrist 3.214228143727002
lhand -27.38003018447489 26.15671935647651
lfingers 7.1250199999999975
lthumb -0.7870619657577278 56.129066607600556
rclavicle -3.4651943476970297e-15 -8.615539768362643e-16
rhumerus -27.776098259516125 -20.305926992545572 -82.03381947013679
rradius 19.345722824248867
rwrist 8.7291946923921
rhand -18.378076268584465 20.78441554252426
rfingers 7.1250199999999975
rthumb 7.905103058723221 -9.451935657010672
23
root 0.16170668491059215 17.70338774285964 -3.573985321197302 -3.208095172760914 0.7287910821634966 2.589614576356197
lfemur -8.291700941162889 -2.0643557282298897 -25.38818594026969
ltibia 31.54252118918331
lfoot -19.450387831321542 11.300886416972878
ltoes 1.55854369584157
rfemur -20.52281234896394 0.7088460950313262 15.697766412612804
rtibia 69.56064648736927
rfoot -7.388520322160754 -7.554770951771802
rtoes 9.710679501367162
lowerback 10.887708326632536 1.168884531235437 -3.860511396822936
upperback 0.8158557469350948 0.7628612536883941 0.19198079646133315
thorax -5.367856000593659 0.5341236778305626 1.8123525485845482
lowerneck -17.31009889988259 -3.2136387045654136 -1.3984142652394957
upperneck 20.38993733006948 -4.257676733177272 2.23481864800704
head 9.379615403857704 -1.9678167310781454 0.510299629797488
lclavicle -2.549415075991492e-15 -2.5071452402834085e-16
lhumerus -26.383465211935874 -5.986825483602929 85.14580215079783
lradius 25.07220631743925
lwrist 3.2058367287125256
lhand -27.21143535624349 25.366874102226156
lfingers 7.1250199999999975
lthumb -0.6242135231325393 55.34105709305622
rclavicle -2.549415075991492e-15 -2.5071452402834085e-16
rhumerus -28.304359189972057 -20.663189193351997 -82.01741970267135
rradius 19.628671214921873
rwrist 7.381588011243155
rhand -18.02318583069992 20.838065101473163
rfingers 7.1250199999999975
rthumb 8.247561284776506 -9.294579512822574
24
root 0.18192996315898688 17.716528472704194 -3.4764875784352185 -2.8380811876756735 0.5943258030960177 2.743183179059074
lfemur -6.093993487098844 -2.282366493113211 -25.587923686800064
ltibia 30.499979295869455
lfoot -19.632932793356854 11.944886387750412
ltoes -2.0704082606119867
rfemur -24.136636389858218 0.45933474206030933 15.877661442351748
rtibia 68.8458777727597
rfoot -8.461170096332982 -6.8715915228656295
rtoes 8.304109930636024
lowerback 10.827986419689786 0.7288608161669669 -4.202321071944706
upperback 0.788381069945372 0.16615919737894713 0.3152037053133152
thorax -5.360165149975205 0.24413715185589818 2.218127127474312
lowerneck -17.411052578224858 -3.1422249669736213 -1.423663278509139
upperneck 20.327229936045043 -4.153360396101761 2.1811025168507223
head 9.35949317565834 -1.925080267189294 0.5271271178826415
lclavicle -2.7135802036753335e-15 -3.602298125117342e-16
lhumerus -24.902801218721585 -6.782849512807452 84.85680008369914
lradius 26.287749853116374
lwrist 3.519361706641694
lhand -26.977022142454988 24.95143589807975
lfingers 7.1250199999999975
lthumb -0.39781843398685407 54.92251970677279
rclavicle -2.7135802036753335e-15 -3.602298125117342e-16
rhumerus -29.106195694946834 -20.76855302957162 -82.0994316383793
rradius 20.38031591109508
rwrist 5.65874602911817
rhand -17.73942471651709 21.41807942468089
rfingers 7.1250199999999975
rthumb 8.521394260577827 -8.737655444651715
25
root 0.21885799674140705 17.75169699611993 -1.4215384925612984 -2.5152839423962106 0.2978695482857927 2.385230956958973
lfemur -3.9169588849436403 -2.258927838131906 -25.239676807883836
ltibia 29.459114524786898
lfoot -18.65904606362645 11.61184811361397
ltoes -5.0384182504834945
rfemur -26.743594428450166 0.44394556676909414 16.497084435955216
rtibia 67.32909362888088
rfoot -9.412063835203902 -6.524772403160839
rtoes 7.532034629983329
lowerback 10.722559571127157 0.2789564337275855 -4.226222745806035
upperback 0.6988490487502768 -0.3633290594603429 0.5347409607602909
thorax -5.374543056020149 -0.02130069031485582 2.624097744531917
lowerneck -17.39328139069287 -3.0501359973308357 -1.3531921284769668
upperneck 20.3382651343281 -4.018897583902169 2.03659902616449
head 9.33774179172487 -1.8736425995570973 0.5056343808188526
lclavicle -2.8512082703206735e-15 -4.520279904907528e-16
lhumerus -23.99808899381783 -6.385424843741146 84.53653359161912
lradius 27.45276148228268
lwrist 4.169663341311175
lhand -26.8324909656557 24.132274811498025
lfingers 7.1250199999999975
lthumb -0.25825903587554455 54.102297084778826
rclavicle -2.8512082703206735e-15 -4.520279904907528e-16
rhumerus -29.847754947059116 -20.619415972767772 -81.96918559430884
rradius 21.20144677586527
rwrist 4.052039973881389
rhand -17.517366838005568 21.558674492652322
rfingers 7.1250199999999975
rthumb 8.735828997555368 -8.63937056977508
